<?xml version="1.0" encoding="UTF-8" standalone="no"?>
<svg
   xmlns:dc="http://purl.org/dc/elements/1.1/"
   xmlns:cc="http://creativecommons.org/ns#"
   xmlns:rdf="http://www.w3.org/1999/02/22-rdf-syntax-ns#"
   xmlns:svg="http://www.w3.org/2000/svg"
   xmlns="http://www.w3.org/2000/svg"
   xmlns:sodipodi="http://sodipodi.sourceforge.net/DTD/sodipodi-0.dtd"
   xmlns:inkscape="http://www.inkscape.org/namespaces/inkscape"
   width="636.93475mm"
   height="146.61818mm"
   viewBox="0 0 636.93475 146.61818"
   version="1.1"
   id="svg8"
   inkscape:version="1.0.2 (e86c870879, 2021-01-15)"
   sodipodi:docname="logo.svg"
   inkscape:export-filename="/home/luiz/dev/51/wetweet/nodoc/arts/logo2.png"
   inkscape:export-xdpi="164.69"
   inkscape:export-ydpi="164.69">
  <defs
     id="defs2" />
  <sodipodi:namedview
     id="base"
     pagecolor="#ffffff"
     bordercolor="#666666"
     borderopacity="1.0"
     inkscape:pageopacity="0.0"
     inkscape:pageshadow="2"
     inkscape:zoom="0.25"
     inkscape:cx="963.63205"
     inkscape:cy="-478.77004"
     inkscape:document-units="mm"
     inkscape:current-layer="text1071"
     inkscape:document-rotation="0"
     showgrid="false"
     inkscape:window-width="1848"
     inkscape:window-height="1016"
     inkscape:window-x="72"
     inkscape:window-y="725"
     inkscape:window-maximized="1"
     fit-margin-top="10"
     fit-margin-left="10"
     fit-margin-right="10"
     fit-margin-bottom="10" />
  <metadata
     id="metadata5">
    <rdf:RDF>
      <cc:Work
         rdf:about="">
        <dc:format>image/svg+xml</dc:format>
        <dc:type
           rdf:resource="http://purl.org/dc/dcmitype/StillImage" />
        <dc:title />
      </cc:Work>
    </rdf:RDF>
  </metadata>
  <g
     inkscape:groupmode="layer"
     id="layer2"
     inkscape:label="Layer 2"
     transform="translate(-42.977575,261.34037)">
    <g
       id="g1067"
       transform="matrix(0.83286578,0,0,0.83286578,-224.82497,10.657438)"
       style="stroke:#4d4d4d">
      <g
         id="g1036"
         style="stroke:#4d4d4d"
         inkscape:export-filename="/home/luiz/dev/51/wetweet/nodoc/arts/g1036.png"
         inkscape:export-xdpi="164.69"
         inkscape:export-ydpi="164.69">
        <circle
           style="fill:#f6d78f;fill-opacity:1;stroke:#4d4d4d;stroke-width:4.99999;stroke-linecap:round;stroke-miterlimit:4;stroke-dasharray:none;stroke-opacity:1"
           id="path971"
           cx="472.75104"
           cy="-246.09457"
           r="44.316647" />
        <path
           style="fill:none;stroke:#4d4d4d;stroke-width:5;stroke-linecap:round;stroke-linejoin:miter;stroke-miterlimit:4;stroke-dasharray:none;stroke-opacity:1"
           d="m 472.56835,-300.66126 0.0355,-11.41261"
           id="path973"
           sodipodi:nodetypes="cc" />
        <path
           style="fill:none;stroke:#4d4d4d;stroke-width:5;stroke-linecap:round;stroke-linejoin:miter;stroke-miterlimit:4;stroke-dasharray:none;stroke-opacity:1"
           d="m 472.56835,-179.11691 0.0355,-11.41261"
           id="path975"
           sodipodi:nodetypes="cc" />
        <path
           style="fill:none;stroke:#4d4d4d;stroke-width:5;stroke-linecap:round;stroke-linejoin:miter;stroke-miterlimit:4;stroke-dasharray:none;stroke-opacity:1"
           d="m 527.65197,-245.61314 11.41261,0.0355"
           id="path977"
           sodipodi:nodetypes="cc" />
        <path
           style="fill:none;stroke:#4d4d4d;stroke-width:5;stroke-linecap:round;stroke-linejoin:miter;stroke-miterlimit:4;stroke-dasharray:none;stroke-opacity:1"
           d="m 406.10762,-245.61314 11.41261,0.0355"
           id="path979"
           sodipodi:nodetypes="cc" />
        <path
           style="fill:none;stroke:#4d4d4d;stroke-width:5;stroke-linecap:round;stroke-linejoin:miter;stroke-miterlimit:4;stroke-dasharray:none;stroke-opacity:1"
           d="m 511.5361,-206.67049 8.04483,8.09504"
           id="path981"
           sodipodi:nodetypes="cc" />
        <path
           style="fill:none;stroke:#4d4d4d;stroke-width:5;stroke-linecap:round;stroke-linejoin:miter;stroke-miterlimit:4;stroke-dasharray:none;stroke-opacity:1"
           d="m 425.59127,-292.61532 8.04483,8.09503"
           id="path983"
           sodipodi:nodetypes="cc" />
        <path
           style="fill:none;stroke:#4d4d4d;stroke-width:5;stroke-linecap:round;stroke-linejoin:miter;stroke-miterlimit:4;stroke-dasharray:none;stroke-opacity:1"
           d="m 433.6612,-206.64539 -8.09503,8.04483"
           id="path985"
           sodipodi:nodetypes="cc" />
        <path
           style="fill:none;stroke:#4d4d4d;stroke-width:5;stroke-linecap:round;stroke-linejoin:miter;stroke-miterlimit:4;stroke-dasharray:none;stroke-opacity:1"
           d="m 519.60604,-292.59022 -8.09504,8.04483"
           id="path987"
           sodipodi:nodetypes="cc" />
      </g>
      <g
         id="g1048"
         style="stroke:#4d4d4d">
        <path
           style="fill:#ffffff;stroke:#4d4d4d;stroke-width:5;stroke-linecap:butt;stroke-linejoin:miter;stroke-miterlimit:4;stroke-dasharray:none;stroke-opacity:1"
           d="m 377.63177,-245.84646 c 16.99204,-28.6779 37.60849,-28.52444 58.27494,-27.97323 23.41677,5.19784 33.44823,23.06724 40.71913,43.54999 42.40596,15.02177 25.87663,67.63786 -20.32182,64.8788 l -76.73881,0.34365 c -67.61853,-5.90019 -47.01964,-86.2919 -1.93344,-80.79921 z"
           id="path944"
           inkscape:export-filename="/home/luiz/dev/51/wetweet/nodoc/arts/g1036.png"
           inkscape:export-xdpi="164.69"
           inkscape:export-ydpi="164.69" />
        <path
           style="fill:none;stroke:#4d4d4d;stroke-width:5;stroke-linecap:round;stroke-linejoin:miter;stroke-miterlimit:4;stroke-dasharray:none;stroke-opacity:1"
           d="m 383.72964,-217.39138 c 3.99801,-3.59671 8.23,-6.09301 14.23741,-0.23928 v 0"
           id="path946"
           sodipodi:nodetypes="ccc"
           inkscape:export-filename="/home/luiz/dev/51/wetweet/nodoc/arts/g1036.png"
           inkscape:export-xdpi="164.69"
           inkscape:export-ydpi="164.69" />
        <path
           style="fill:none;stroke:#4d4d4d;stroke-width:5;stroke-linecap:round;stroke-linejoin:miter;stroke-miterlimit:4;stroke-dasharray:none;stroke-opacity:1"
           d="m 438.60983,-218.20353 c 3.99801,-3.59671 8.23,-6.09301 14.23741,-0.23928 v 0"
           id="path948"
           sodipodi:nodetypes="ccc"
           inkscape:export-filename="/home/luiz/dev/51/wetweet/nodoc/arts/g1036.png"
           inkscape:export-xdpi="164.69"
           inkscape:export-ydpi="164.69" />
        <path
           style="fill:none;stroke:#4d4d4d;stroke-width:5;stroke-linecap:round;stroke-linejoin:miter;stroke-miterlimit:4;stroke-dasharray:none;stroke-opacity:1"
           d="m 425.56617,-198.60056 c -4.11768,3.45906 -8.43189,5.8104 -14.23734,-0.24367 v 0"
           id="path950"
           sodipodi:nodetypes="ccc"
           inkscape:export-filename="/home/luiz/dev/51/wetweet/nodoc/arts/g1036.png"
           inkscape:export-xdpi="164.69"
           inkscape:export-ydpi="164.69" />
        <ellipse
           style="fill:#ff9878;fill-opacity:1;stroke:none;stroke-width:7.42209;stroke-linecap:round;stroke-miterlimit:4;stroke-dasharray:none"
           id="path952"
           cx="381.10669"
           cy="-204.95033"
           rx="7.7056675"
           ry="6.0545588"
           inkscape:export-filename="/home/luiz/dev/51/wetweet/nodoc/arts/g1036.png"
           inkscape:export-xdpi="164.69"
           inkscape:export-ydpi="164.69" />
        <ellipse
           style="fill:#ff9878;fill-opacity:1;stroke:none;stroke-width:7.42209;stroke-linecap:round;stroke-miterlimit:4;stroke-dasharray:none"
           id="ellipse960"
           cx="455.84366"
           cy="-204.99594"
           rx="7.7056675"
           ry="6.0545588"
           inkscape:export-filename="/home/luiz/dev/51/wetweet/nodoc/arts/g1036.png"
           inkscape:export-xdpi="164.69"
           inkscape:export-ydpi="164.69" />
      </g>
    </g>
    <g
       aria-label="WeTweet"
       id="text1071"
       style="font-size:95.6933px;line-height:1.25;font-family:Bonkers;-inkscape-font-specification:Bonkers;fill:#f6d78f;fill-opacity:1;stroke-width:0.598083">
      <path
         d="m 288.19234,-177.07176 -11.10042,-22.29654 -11.19611,22.29654 -10.43057,-41.62658 h -14.16261 l 16.36355,68.42071 h 11.29181 l 8.13393,-16.26786 8.13393,16.26786 h 11.19612 l 16.36355,-68.42071 h -14.16261 z"
         style="font-size:95.6933px;fill:#f6d78f;fill-opacity:1;stroke-width:0.598083"
         id="path851" />
      <path
         d="m 359.10106,-172.1914 c -4.11482,9.18656 -16.36356,12.44013 -23.25348,4.3062 12.05736,-3.54065 24.11472,-6.88992 35.98068,-10.52626 -3.34926,-33.01419 -49.9519,-34.3539 -53.10978,-0.86124 -1.3397,13.97122 8.32532,26.60273 21.33961,29.47353 14.54538,3.25357 26.69843,-5.35882 32.53572,-18.66019 z m -3.34927,-12.8229 -23.06208,6.79422 c -2.29664,-11.48319 18.94727,-17.79895 23.06208,-6.79422 z"
         style="font-size:95.6933px;fill:#f6d78f;fill-opacity:1;stroke-width:0.598083"
         id="path853" />
      <path
         d="m 376.70854,-218.69834 v 14.64107 h 20.66975 v 53.77964 h 14.64108 v -53.77964 h 20.66975 v -14.64107 z"
         style="fill:#2aa9e0;fill-opacity:1"
         id="path855" />
      <path
         d="m 507.52113,-203.10033 h -1.4354 l -8.6124,26.69843 -7.55977,-26.69843 h -13.20567 -1.62679 l -7.65546,26.79412 -8.51671,-26.79412 h -12.91859 -2.8708 l 16.45924,51.48299 0.57416,1.33971 h 13.97123 1.62678 l 6.69853,-24.68887 6.79423,24.68887 h 14.16261 1.43539 l 16.17217,-50.14329 0.86124,-2.67941 h -2.7751 z"
         style="fill:#2aa9e0;fill-opacity:1"
         id="path857" />
      <path
         d="m 566.18096,-172.1914 c -4.11481,9.18656 -16.36356,12.44013 -23.25347,4.3062 12.05735,-3.54065 24.11471,-6.88992 35.98068,-10.52626 -3.34927,-33.01419 -49.9519,-34.3539 -53.10978,-0.86124 -1.33971,13.97122 8.32531,26.60273 21.3396,29.47353 14.54538,3.25357 26.69843,-5.35882 32.53572,-18.66019 z m -3.34927,-12.8229 -23.06208,6.79422 c -2.29664,-11.48319 18.94727,-17.79895 23.06208,-6.79422 z"
         style="fill:#2aa9e0;fill-opacity:1"
         id="path859" />
      <path
         d="m 624.45809,-172.1914 c -4.11481,9.18656 -16.36356,12.44013 -23.25347,4.3062 12.05735,-3.54065 24.11471,-6.88992 35.98068,-10.52626 -3.34927,-33.01419 -49.9519,-34.3539 -53.10978,-0.86124 -1.33971,13.97122 8.32531,26.60273 21.3396,29.47353 14.54538,3.25357 26.69843,-5.35882 32.53572,-18.66019 z m -3.34927,-12.8229 -23.06208,6.79422 c -2.29664,-11.48319 18.94727,-17.79895 23.06208,-6.79422 z"
         style="fill:#2aa9e0;fill-opacity:1"
         id="path861" />
      <path
         d="m 662.16116,-207.69361 v -9.09087 -2.00956 h -14.44969 v 2.00956 9.09087 h -3.63634 -2.00956 v 13.39706 h 2.00956 3.63634 v 30.33477 c 0,8.6124 6.22007,14.83247 14.73677,14.83247 2.29664,0 4.3062,-0.38278 6.12437,-1.05263 l 1.33971,-0.57416 v -12.8229 l -2.67942,0.95693 c -0.47846,0.0957 -1.05262,0.19139 -1.91386,0.19139 -0.95693,0 -3.15788,-0.19139 -3.15788,-1.5311 v -13.68414 -16.65063 h 5.7416 2.00956 v -13.39706 h -2.00956 z"
         style="fill:#2aa9e0;fill-opacity:1"
         id="path863" />
    </g>
  </g>
</svg>
